<svg width="121" height="77" viewBox="0 0 121 77" fill="none" xmlns="http://www.w3.org/2000/svg">
<g id="Isolation_Mode" clip-path="url(#clip0_47_2)">
<path id="Vector" d="M33.2659 45.3489H45.7224H59.4877C57.7391 44.9105 56.3183 43.4799 56.3183 41.6108V25.335C58.3298 26.7998 59.7662 28.7661 60.5312 30.5826C61.2936 28.7634 62.7326 26.7998 64.7441 25.335V41.6108C64.7441 43.4799 63.3233 44.9105 61.5747 45.3489H75.3426H87.7003C87.6742 45.3437 87.6456 45.3358 87.6196 45.3279C87.5936 45.3201 87.565 45.3122 87.5389 45.3043C87.5129 45.2964 87.4843 45.2886 87.4583 45.2807L87.3776 45.2544L87.2969 45.2282C87.2709 45.2203 87.2449 45.2098 87.2163 45.2019C87.1902 45.1914 87.1642 45.1809 87.1382 45.1704C87.1122 45.1626 87.0888 45.1494 87.0601 45.1389L86.9821 45.1048C86.956 45.0943 86.9326 45.0838 86.9066 45.0733C86.8806 45.0602 86.8572 45.0497 86.8311 45.0365L86.7583 44.9998C86.7323 44.9867 86.7088 44.9762 86.6828 44.963C86.6568 44.9499 86.6334 44.9368 86.61 44.9237C86.5865 44.9105 86.5631 44.8974 86.5397 44.8843C86.4434 44.8292 86.3471 44.7714 86.2587 44.711C86.2352 44.6953 86.2144 44.6795 86.191 44.6638C85.5197 44.1939 84.9914 43.5402 84.7234 42.7684C84.7156 42.7422 84.7078 42.7159 84.6974 42.6897C84.6896 42.6634 84.6818 42.6372 84.674 42.6109C84.6662 42.5847 84.6583 42.5584 84.6505 42.5296C84.6427 42.5033 84.6375 42.4771 84.6297 42.4482C84.6245 42.4219 84.6167 42.3957 84.6115 42.3668C84.6063 42.3406 84.6011 42.3117 84.5959 42.2854C84.5907 42.2592 84.5855 42.2303 84.5803 42.204C84.5777 42.1752 84.5725 42.1489 84.5699 42.12C84.5647 42.0938 84.5621 42.0649 84.5569 42.036C84.5543 42.0072 84.5517 41.9809 84.5491 41.9494C84.5491 41.9232 84.5439 41.8943 84.5413 41.8654C84.5413 41.8365 84.5386 41.8076 84.536 41.7788C84.536 41.7499 84.536 41.721 84.5334 41.6921V27.5086C84.9706 25.9703 86.0635 24.2351 87.7003 23.5762C86.0609 22.807 84.9706 21.0745 84.5334 19.5335V11.9968C84.5334 11.9679 84.5334 11.939 84.536 11.9102C84.536 11.8787 84.5387 11.8524 84.5413 11.8235C84.5413 11.7973 84.5465 11.7658 84.5491 11.7369C84.5517 11.7107 84.5543 11.6818 84.5569 11.6529C84.5595 11.624 84.5647 11.5978 84.5699 11.5689C84.5699 11.54 84.5777 11.5138 84.5803 11.4849C84.5855 11.4586 84.5907 11.4298 84.5959 11.4035L84.6115 11.3221C84.6167 11.2959 84.6245 11.2696 84.6297 11.2408C84.6375 11.2145 84.6427 11.1883 84.6505 11.1594C84.6583 11.1331 84.6662 11.1069 84.674 11.078C84.6818 11.0518 84.6896 11.0281 84.6974 10.9993C84.7052 10.973 84.7156 10.9494 84.7234 10.9231C84.9914 10.1487 85.5171 9.49768 86.191 9.02516L86.2587 8.97791C86.3263 8.93328 86.3966 8.88865 86.4668 8.84665C86.4903 8.8309 86.5137 8.81778 86.5397 8.80202C86.5631 8.79152 86.5865 8.77577 86.61 8.76265C86.636 8.74952 86.6594 8.7364 86.6828 8.72327C86.7088 8.71015 86.7323 8.69702 86.7583 8.6839C86.7843 8.67339 86.8077 8.66027 86.8311 8.64714C86.8572 8.63664 86.8806 8.62352 86.9066 8.61302C86.9326 8.60252 86.956 8.59202 86.9821 8.57889L87.0601 8.54739C87.0862 8.53689 87.1122 8.52639 87.1382 8.51589C87.1642 8.50539 87.1902 8.49489 87.2163 8.48439C87.2423 8.47651 87.2709 8.46601 87.2969 8.45813C87.323 8.45026 87.3516 8.43976 87.3776 8.43188C87.4036 8.42138 87.4296 8.41613 87.4583 8.40563C87.4843 8.39776 87.5103 8.38988 87.5389 8.37938L87.6196 8.35838C87.6456 8.3505 87.6742 8.34263 87.7003 8.33738H73.9349C73.9609 8.34263 73.9895 8.3505 74.0156 8.35838C74.0416 8.36626 74.0702 8.37413 74.0962 8.37938C74.1222 8.38726 74.1509 8.39513 74.1769 8.40563C74.2029 8.41613 74.2289 8.42138 74.2575 8.43188L74.3382 8.45813L74.4189 8.48439C74.4449 8.49489 74.4709 8.50539 74.497 8.51589C74.523 8.52376 74.549 8.53689 74.575 8.54739L74.6531 8.57889C74.6791 8.59202 74.7025 8.60252 74.7285 8.61302C74.7546 8.62352 74.778 8.63664 74.804 8.64714C74.83 8.66027 74.8534 8.67339 74.8795 8.6839C74.9055 8.69702 74.9289 8.71015 74.9523 8.72327L75.0252 8.76265C75.0486 8.77577 75.0746 8.7889 75.098 8.80202C75.1215 8.81778 75.1449 8.8309 75.1683 8.84403C75.2412 8.88865 75.3114 8.93066 75.3765 8.97791C75.3999 8.99366 75.4233 9.00941 75.4441 9.02516C76.1181 9.49506 76.6437 10.1461 76.9117 10.9231C76.9196 10.9494 76.93 10.973 76.9378 10.9993C76.9456 11.0255 76.9534 11.0518 76.9638 11.078C76.9716 11.1043 76.9794 11.1305 76.9846 11.1594C76.9924 11.1856 77.0002 11.2119 77.0054 11.2408C77.0106 11.2696 77.0184 11.2933 77.0236 11.3221C77.0314 11.3484 77.0366 11.3773 77.0419 11.4035C77.0471 11.4298 77.0497 11.4586 77.0575 11.4849C77.0601 11.5111 77.0653 11.54 77.0705 11.5689C77.0757 11.5952 77.0783 11.624 77.0809 11.6529C77.0835 11.6818 77.0887 11.708 77.0887 11.7369C77.0913 11.7658 77.0939 11.7947 77.0965 11.8235C77.0965 11.8524 77.0991 11.8787 77.1017 11.9102C77.1017 11.9364 77.1017 11.9653 77.1043 11.9968V19.5335C76.7374 20.8329 75.8761 22.2321 74.6401 23.1116C73.404 22.2321 72.5427 20.8303 72.1758 19.5335V7.69948C72.1758 5.60988 72.7223 0 65.9489 0H55.1213C48.3453 0 48.8944 5.60988 48.8944 7.69948V19.5414C48.5223 20.8539 47.6454 22.2715 46.3885 23.1483C45.1291 22.2715 44.2548 20.8539 43.88 19.5414V12.0939C43.88 10.2248 45.3008 8.79415 47.0469 8.35575H33.2685C35.0171 8.79415 36.4379 10.2248 36.4379 12.0939V19.5414C36.0007 21.0797 34.9078 22.8149 33.2685 23.5841C34.9078 24.243 36.0007 25.9756 36.4379 27.5165V41.6134C36.4379 43.4825 35.0171 44.9132 33.2685 45.3516L33.2659 45.3489ZM72.1732 27.5139C72.5427 26.2144 73.4014 24.8179 74.6401 24.0041C75.8761 24.8179 76.7374 26.2144 77.1043 27.5139V41.6974C77.1043 41.7263 77.1043 41.7551 77.1017 41.784L77.0965 41.8707C77.0965 41.8969 77.0939 41.9258 77.0887 41.9547C77.0887 41.9835 77.0835 42.0098 77.0809 42.0413C77.0783 42.0675 77.0757 42.0964 77.0705 42.1253C77.0679 42.1515 77.0627 42.1804 77.0575 42.2093C77.0523 42.2355 77.0497 42.2644 77.0419 42.2907C77.0366 42.3169 77.0314 42.3458 77.0236 42.3721C77.0184 42.4009 77.0106 42.4298 77.0054 42.4534C77.0002 42.4797 76.9924 42.5086 76.9846 42.5348C76.9794 42.5611 76.9716 42.5873 76.9638 42.6162C76.956 42.6424 76.9482 42.6687 76.9378 42.6949C76.93 42.7212 76.9222 42.7474 76.9117 42.7737C76.6437 43.5455 76.1181 44.1991 75.4441 44.669C75.4233 44.6848 75.3999 44.7005 75.3765 44.7163C75.2854 44.7767 75.1917 44.8344 75.0954 44.8895C75.072 44.9053 75.046 44.9158 75.0226 44.9289C74.9966 44.9447 74.9731 44.9552 74.9497 44.9683L74.8769 45.005C74.8534 45.0182 74.8274 45.0313 74.8014 45.0418C74.7754 45.0549 74.752 45.068 74.7259 45.0786C74.7181 45.0812 74.7077 45.0864 74.6999 45.089C73.2687 44.4905 72.1732 43.241 72.1732 41.6134V27.5165V27.5139ZM60.5338 0.212635C64.3746 1.21018 64.7467 6.02727 64.7467 7.69948V21.6756C62.7586 20.2187 61.291 18.389 60.5338 16.5829C59.774 18.389 58.309 20.2213 56.3209 21.6782V7.69948C56.3209 6.02465 56.693 1.21018 60.5338 0.212635ZM46.3833 23.9805C47.6428 24.789 48.5171 26.2013 48.8918 27.5165V41.6134C48.8918 43.2331 47.8067 44.48 46.3859 45.0812C44.9651 44.48 43.8774 43.2331 43.8774 41.6134V27.5165C44.2495 26.2039 45.1265 24.7916 46.3833 23.9831V23.9805Z" fill="url(#paint0_linear_47_2)"/>
<path id="Vector_2" d="M106.038 62.3045C106.056 62.21 106.064 62.0918 106.064 61.9501V61.6639C106.064 61.4854 106.03 61.2203 105.962 60.8685C105.897 60.5194 105.809 60.1361 105.699 59.7214C105.59 59.3066 105.473 58.8839 105.343 58.4508C105.215 58.0177 105.085 57.6239 104.953 57.2747C104.82 56.9256 104.698 56.6368 104.588 56.4137C104.479 56.1906 104.388 56.0803 104.315 56.0803H94.0209L95.1164 57.5504C95.1372 57.5766 95.1711 57.6213 95.2075 57.6843C95.2439 57.7473 95.2621 57.7866 95.2621 57.7998V68.1375H100.909C101.125 68.1375 101.349 68.085 101.572 67.9774C101.796 67.8671 102.01 67.7359 102.21 67.5757C102.41 67.4182 102.595 67.2476 102.764 67.0691C102.933 66.8906 103.079 66.7357 103.186 66.5913C103.238 66.5178 103.373 66.3104 103.602 65.9796C103.834 65.6489 104.091 65.2761 104.377 64.864C104.664 64.4492 104.942 64.0397 105.215 63.6407C105.489 63.239 105.689 62.9293 105.827 62.714C105.941 62.5329 106.019 62.4016 106.035 62.3045H106.038ZM99.1966 66.3865V57.6528H101.31C101.601 58.3799 101.835 59.0651 102.01 59.7082C102.184 60.3514 102.327 60.984 102.439 61.6088L99.1966 66.3892V66.3865Z" fill="url(#paint1_linear_47_2)"/>
<path id="Vector_3" d="M81.0414 68.1428H90.1671V65.3917L89.0196 66.5966H85.7226V57.5163C85.7825 57.4297 85.8371 57.3483 85.884 57.2774C85.9334 57.2066 85.9933 57.1462 86.0479 57.0779C86.2743 56.7892 86.3992 56.5818 86.4486 56.4663C86.4981 56.3534 86.5215 56.23 86.5215 56.104H80.802L81.9131 57.5189V66.7515L81.0388 68.1454L81.0414 68.1428Z" fill="url(#paint2_linear_47_2)"/>
<path id="Vector_4" d="M115.861 66.5574C115.837 66.6072 115.793 66.6781 115.733 66.7674C115.673 66.854 115.606 66.9432 115.533 67.0325C115.46 67.1218 115.395 67.2031 115.333 67.2714C115.273 67.3423 115.234 67.3816 115.223 67.3974L114.513 68.1403H120.852L116.28 56.0989H111.343L112.655 57.6661L110.669 63.381H109.522C109.522 63.6225 109.525 63.7695 109.53 63.8194C109.535 63.8692 109.553 63.927 109.574 63.9926C109.613 64.1055 109.655 64.1921 109.701 64.2499C109.751 64.305 109.811 64.3549 109.865 64.4126C109.933 64.4835 109.977 64.5649 110.019 64.6331C110.063 64.7014 110.068 64.7906 110.084 64.8904L110.102 65.0243L109.374 67.106V67.0876C109.324 67.2031 109.251 67.3134 109.145 67.421C109.041 67.5286 108.944 67.6048 108.882 67.6809L108.499 68.1377H112.652L111.286 66.6492L111.851 64.9482L112.015 64.8537H115.366L115.858 66.2686V66.308C115.858 66.3342 115.861 66.3526 115.866 66.3657C115.871 66.3788 115.874 66.3972 115.874 66.4235C115.874 66.4497 115.871 66.4707 115.866 66.4891C115.861 66.5075 115.858 66.5311 115.858 66.5574H115.861ZM113.748 59.3882C113.844 59.4905 113.891 59.5588 113.883 59.5903C113.878 59.6218 113.802 59.6375 113.657 59.6375L113.748 59.3882ZM112.382 63.3075L113.566 59.8869L113.584 59.9053V59.8869L114.786 63.3075H112.382Z" fill="url(#paint3_linear_47_2)"/>
<path id="Vector_5" d="M2.84155 56.104L4.15303 57.6712L2.16759 63.3861H1.01744C1.01744 63.6276 1.02004 63.7746 1.02785 63.8245C1.03305 63.8744 1.04867 63.9321 1.07209 63.9977C1.10852 64.1106 1.15015 64.1972 1.19959 64.255C1.24903 64.3101 1.30368 64.3653 1.36353 64.4178C1.42598 64.4939 1.47802 64.57 1.51966 64.6383C1.56129 64.7065 1.58211 64.7958 1.58211 64.8955L1.60032 65.0294L0.87172 67.1111V67.0928C0.82228 67.2083 0.746817 67.3185 0.645333 67.4261C0.541247 67.5364 0.452774 67.6204 0.382516 67.686L0 68.1428H4.15303L2.7869 66.6544L3.35157 64.9533L3.51551 64.8588H6.86707L7.35888 66.2737V66.3131C7.35888 66.3393 7.36148 66.3577 7.36669 66.3708C7.37449 66.384 7.37449 66.4023 7.37449 66.4286C7.37449 66.4549 7.37449 66.4759 7.36669 66.4942C7.36148 66.5126 7.35888 66.5362 7.35888 66.5625C7.33546 66.6124 7.29123 66.6832 7.23138 66.7725C7.16892 66.8591 7.10387 66.9484 7.03101 67.0376C6.95815 67.1269 6.89049 67.2083 6.82804 67.2765C6.76819 67.3474 6.73176 67.3868 6.71875 67.4025L6.00837 68.1454H12.3472L7.77523 56.104H2.84155ZM5.24594 59.3907C5.34482 59.493 5.38905 59.5613 5.38385 59.5928C5.37604 59.6243 5.30058 59.64 5.15746 59.64L5.24854 59.3907H5.24594ZM3.87981 63.31L5.06378 59.8894L5.082 59.9078V59.8894L6.28419 63.31H3.87981Z" fill="url(#paint4_linear_47_2)"/>
<path id="Vector_6" d="M30.047 66.9301C30.0106 66.9879 29.9794 67.0299 29.956 67.0561L29.2274 68.1429H34.7465L34.0179 67.0561C33.9945 67.0299 33.9607 66.9879 33.9268 66.9301C33.8904 66.8724 33.8722 66.8382 33.8722 66.8251V57.6897C33.9216 57.6267 33.9789 57.5401 34.0465 57.4298C34.1142 57.3196 34.1792 57.2119 34.2391 57.1043C34.3015 56.994 34.3536 56.8969 34.403 56.8077C34.4499 56.7184 34.4889 56.6554 34.5123 56.6186L34.5488 56.5793V56.5399C34.5618 56.5031 34.5748 56.448 34.5878 56.3771C34.5982 56.3089 34.6034 56.2144 34.6034 56.0989H29.3757C29.3757 56.3404 29.3939 56.4874 29.4303 56.5373V56.5767L29.4668 56.616C29.4798 56.6528 29.5084 56.7158 29.5578 56.805C29.6073 56.8943 29.6645 56.9914 29.7322 57.1017C29.7998 57.2093 29.8649 57.3169 29.9325 57.4272C30.0002 57.5374 30.0574 57.6214 30.1069 57.6871V66.8225C30.1069 66.8225 30.0861 66.8697 30.0522 66.9275L30.047 66.9301Z" fill="url(#paint5_linear_47_2)"/>
<path id="Vector_7" d="M24.8245 57.1356C24.861 57.0359 24.913 56.9492 24.9807 56.8784C25.0457 56.8101 25.1108 56.7602 25.1706 56.734L25.5349 56.1039H21.5822L22.8963 57.7866L20.6741 64.4571L20.6195 64.3416V64.3626L18.3426 57.9599V57.9205C18.3426 57.8943 18.34 57.8759 18.3348 57.8628C18.327 57.8496 18.3244 57.8313 18.3244 57.805C18.3244 57.7788 18.327 57.7551 18.3348 57.7368C18.34 57.7184 18.3426 57.6948 18.3426 57.6685C18.366 57.6291 18.4102 57.5714 18.4701 57.4874C18.5325 57.4034 18.595 57.3194 18.6626 57.2406C18.7303 57.1566 18.7927 57.0779 18.8552 56.9991C18.915 56.923 18.9593 56.8705 18.9827 56.8469L19.6931 56.1013H13.3542L17.8898 68.1427H22.8079L21.5354 66.5782L24.8323 57.1356H24.8245Z" fill="url(#paint6_linear_47_2)"/>
<path id="Vector_8" d="M71.9495 66.9301C71.913 66.9879 71.8766 67.0273 71.8584 67.0561L71.1298 68.1429H76.649L75.9204 67.0561C75.9021 67.0273 75.8657 66.9879 75.8293 66.9301C75.7928 66.8724 75.7746 66.8382 75.7746 66.8251V57.6897C75.8241 57.6267 75.8813 57.5401 75.949 57.4298C76.0166 57.3196 76.0791 57.2119 76.1415 57.1043C76.2014 56.994 76.256 56.8969 76.3029 56.8077C76.3523 56.7184 76.3809 56.6502 76.4122 56.6186L76.4512 56.5793V56.5399C76.4616 56.5031 76.4746 56.448 76.4876 56.3771C76.5006 56.3089 76.5058 56.2144 76.5058 56.0989H71.2781C71.2781 56.3404 71.2963 56.4874 71.3328 56.5373V56.5767L71.3692 56.616C71.3822 56.6528 71.4108 56.7158 71.4603 56.805C71.5097 56.8943 71.567 56.9914 71.6346 57.1017C71.7023 57.2093 71.7673 57.3169 71.835 57.4272C71.9026 57.5374 71.9599 57.6214 72.0093 57.6871V66.8225C72.0093 66.8225 71.9911 66.8697 71.9547 66.9275L71.9495 66.9301Z" fill="url(#paint7_linear_47_2)"/>
<path id="Vector_9" d="M66.0348 66.9299C66.0036 66.8722 65.988 66.8381 65.988 66.8249V57.6895C66.0374 57.6265 66.0946 57.5399 66.1623 57.4296C66.23 57.3194 66.295 57.217 66.3549 57.1146C66.4147 57.0122 66.472 56.9151 66.5266 56.8206C66.5812 56.7235 66.6203 56.6578 66.6463 56.6211L66.6827 56.5817V56.5423C66.6957 56.5161 66.7061 56.4662 66.7192 56.3901C66.7322 56.314 66.7374 56.2168 66.7374 56.1013H62.0561V60.249H60.6197V56.1013H55.9358C55.9358 56.3428 55.9567 56.4898 55.9905 56.5397V56.5791L56.0269 56.6185C56.0399 56.6552 56.0712 56.7235 56.1258 56.818C56.1804 56.9125 56.2377 57.0149 56.3001 57.1251C56.3626 57.2327 56.4277 57.3377 56.5005 57.4375C56.576 57.5425 56.6332 57.6239 56.6827 57.6869V66.8223C56.6827 66.8223 56.6671 66.8696 56.6384 66.9273C56.6072 66.9851 56.5812 67.0271 56.5552 67.0533L55.7719 68.1401H60.6171V61.7952H62.0535V68.1401H66.8987L66.1155 67.0533C66.092 67.0271 66.0634 66.9851 66.0348 66.9273V66.9299Z" fill="url(#paint8_linear_47_2)"/>
<path id="Vector_10" d="M50.401 62.3045C50.4192 62.21 50.427 62.0918 50.427 61.9501V61.6639C50.427 61.4854 50.3958 61.2203 50.3282 60.8685C50.2605 60.5194 50.172 60.1361 50.0627 59.7214C49.9535 59.3066 49.8364 58.8839 49.7063 58.4508C49.5788 58.0177 49.4486 57.6239 49.3133 57.2747C49.1806 56.9256 49.0583 56.6395 48.949 56.4137C48.8397 56.1906 48.7487 56.0803 48.6758 56.0803H38.3869L39.4798 57.5504C39.5032 57.5766 39.5345 57.6213 39.5709 57.6843C39.6073 57.7473 39.6255 57.7866 39.6255 57.7998V68.1375H45.2722C45.4908 68.1375 45.712 68.085 45.9357 67.9774C46.1595 67.8671 46.3729 67.7359 46.5733 67.5757C46.7736 67.4182 46.9584 67.2476 47.1275 67.0691C47.2967 66.8906 47.4372 66.7331 47.5465 66.5913C47.5959 66.5152 47.7338 66.3104 47.9654 65.9796C48.197 65.6489 48.4546 65.2761 48.7409 64.864C49.0271 64.4492 49.3055 64.0397 49.5787 63.6407C49.852 63.239 50.0549 62.9319 50.1903 62.714C50.31 62.5381 50.3828 62.4016 50.3984 62.3045H50.401ZM43.56 66.3865V57.6528H45.6703C45.9618 58.3799 46.196 59.0651 46.3729 59.7082C46.5472 60.3514 46.6904 60.984 46.7997 61.6088L43.5574 66.3892L43.56 66.3865Z" fill="url(#paint9_linear_47_2)"/>
<path id="Vector_11" d="M22.0142 72.8706H20.8016V76.9474H22.0142V72.8706Z" fill="url(#paint10_linear_47_2)"/>
<path id="Vector_12" d="M118.265 74.6218V75.4172H119.845V75.5248C119.845 75.6351 119.832 75.7243 119.808 75.7926C119.785 75.8608 119.728 75.9133 119.644 75.9553C119.556 75.9947 119.428 76.0236 119.264 76.0367C119.098 76.0524 118.877 76.0577 118.598 76.0577H118.497C118.151 76.0577 117.88 76.0472 117.685 76.0288C117.487 76.0078 117.341 75.9606 117.245 75.8844C117.149 75.8083 117.089 75.6954 117.066 75.5484C117.042 75.4014 117.029 75.1993 117.029 74.9446V74.8738C117.029 74.6139 117.042 74.4065 117.066 74.2569C117.089 74.1046 117.149 73.9891 117.245 73.913C117.341 73.8368 117.49 73.7896 117.685 73.7686C117.883 73.7502 118.153 73.7397 118.497 73.7397H118.601C118.851 73.7397 119.054 73.7476 119.207 73.766C119.363 73.7817 119.486 73.808 119.571 73.8447C119.657 73.8788 119.717 73.9313 119.746 73.9943C119.774 74.0574 119.79 74.1361 119.79 74.2254V74.2752H120.961V74.1177C120.961 73.8473 120.93 73.6268 120.867 73.4536C120.805 73.2829 120.69 73.1517 120.521 73.0572C120.349 72.9653 120.115 72.8997 119.816 72.8656C119.517 72.8314 119.129 72.8157 118.65 72.8157H118.463C118.086 72.8157 117.758 72.8236 117.479 72.8419C117.201 72.8577 116.964 72.8918 116.771 72.9469C116.579 73.0021 116.42 73.0756 116.303 73.1701C116.181 73.2646 116.087 73.3879 116.017 73.5376C115.949 73.6872 115.902 73.8683 115.879 74.0889C115.856 74.3067 115.843 74.5614 115.843 74.8554V74.9709C115.843 75.4093 115.871 75.7637 115.928 76.0341C115.986 76.2992 116.108 76.5066 116.29 76.651C116.475 76.798 116.74 76.8925 117.084 76.9371C117.43 76.9817 117.89 77.0054 118.463 77.0054H118.65C119.137 77.0054 119.535 76.9844 119.842 76.9424C120.146 76.903 120.388 76.8269 120.56 76.714C120.732 76.6037 120.849 76.4541 120.912 76.2651C120.974 76.0787 121.005 75.8319 121.005 75.5353V74.6244H118.268L118.265 74.6218Z" fill="url(#paint11_linear_47_2)"/>
<path id="Vector_13" d="M112.871 75.9236H112.847L110.508 72.8706H108.674V76.95H109.852V73.8997H109.884L112.257 76.95H114.063V72.8706H112.871V75.9236Z" fill="url(#paint12_linear_47_2)"/>
<path id="Vector_14" d="M12.1885 72.8706H10.6948L9.42239 74.2934L8.14994 72.8706H6.6563L8.50903 74.9024L6.51318 76.95H8.06407L9.42239 75.4669L10.7651 76.95H12.329L10.3331 74.9024L12.1885 72.8706Z" fill="url(#paint13_linear_47_2)"/>
<path id="Vector_15" d="M17.7206 74.3538H15.0404V72.8706H13.833V76.95H15.0404V75.3723H17.7206V76.95H18.9254V72.8706H17.7206V74.3538Z" fill="url(#paint14_linear_47_2)"/>
<path id="Vector_16" d="M1.93078 75.3146H4.95448V74.4614H1.93078V73.7684H5.11841V72.8706H0.736389V76.95H5.19127V76.0234H1.93078V75.3146Z" fill="url(#paint15_linear_47_2)"/>
<path id="Vector_17" d="M83.667 72.8706L81.4603 76.9474H82.7536L83.1205 76.2176H85.6758L86.0505 76.9474H87.349L85.1372 72.8706H83.6643H83.667ZM83.5525 75.3645L84.3799 73.7238H84.4086L85.2491 75.3645H83.5525Z" fill="url(#paint16_linear_47_2)"/>
<path id="Vector_18" d="M72.9487 73.1384C72.8212 73.0386 72.6546 72.973 72.4387 72.931C72.2227 72.8916 71.9468 72.8706 71.6138 72.8706H68.4391V76.9474H69.6309V75.8134H70.8383C71.1168 75.8134 71.3379 75.8212 71.5019 75.8396C71.6684 75.8554 71.7933 75.8921 71.8792 75.9472C71.9651 76.0024 72.0223 76.0838 72.0483 76.1888C72.0744 76.2964 72.0874 76.4381 72.0874 76.614V76.9474H73.2791V76.3253C73.2791 76.1468 73.2713 75.9998 73.2531 75.8842C73.2323 75.7687 73.1985 75.6742 73.1438 75.6007C73.0918 75.5272 73.0163 75.4721 72.9226 75.438C72.8316 75.4012 72.7119 75.3697 72.5688 75.3461V75.3251C72.8264 75.2621 73.0085 75.1466 73.1178 74.9786C73.2245 74.8079 73.2791 74.5638 73.2791 74.2488V74.1018C73.2791 73.8655 73.2557 73.6713 73.2089 73.5138C73.1594 73.3563 73.0736 73.2302 72.9513 73.1357L72.9487 73.1384ZM72.0639 74.38C72.0639 74.4956 72.0561 74.5901 72.0353 74.6636C72.0171 74.7371 71.9755 74.7922 71.9104 74.8289C71.8454 74.8683 71.7517 74.8919 71.6268 74.9051C71.5019 74.9182 71.3379 74.9235 71.1324 74.9235H69.6283V73.7658H71.1324C71.3379 73.7658 71.5019 73.771 71.6268 73.7841C71.7517 73.7973 71.8454 73.8235 71.9104 73.8655C71.9755 73.9049 72.0171 73.96 72.0353 74.0309C72.0561 74.0992 72.0639 74.1937 72.0639 74.3092V74.38Z" fill="url(#paint17_linear_47_2)"/>
<path id="Vector_19" d="M97.3074 72.8706H96.0948V76.9474H97.3074V72.8706Z" fill="url(#paint18_linear_47_2)"/>
<path id="Vector_20" d="M100.607 76.0601L103.789 73.7999V72.8706H99.1263V73.7316H102.202V73.7474L99.0483 76.0313V76.95H103.854V76.0759H100.607V76.0601Z" fill="url(#paint19_linear_47_2)"/>
<path id="Vector_21" d="M66.4823 73.5191C66.4147 73.3668 66.321 73.2461 66.1987 73.1542C66.0764 73.0623 65.9177 72.9914 65.7199 72.9442C65.5221 72.8969 65.2853 72.8628 65.0043 72.8471C64.7233 72.8313 64.3902 72.8208 64.0025 72.8208H63.8151C63.4274 72.8208 63.0943 72.8287 62.8133 72.8471C62.5323 72.8628 62.2955 72.8969 62.1003 72.9442C61.9025 72.9941 61.7438 73.0623 61.6241 73.1542C61.5018 73.2461 61.4055 73.3668 61.3379 73.5191C61.2702 73.6713 61.226 73.8551 61.2026 74.0704C61.1791 74.2882 61.1661 74.5481 61.1661 74.8526V74.9681C61.1661 75.2727 61.1791 75.5299 61.2026 75.7478C61.226 75.9657 61.2702 76.1495 61.3379 76.2991C61.4055 76.4487 61.4992 76.5695 61.6241 76.6587C61.7464 76.7506 61.9051 76.8215 62.1003 76.8714C62.2981 76.9212 62.5349 76.9554 62.8133 76.9737C63.0943 76.9895 63.43 77 63.8151 77H64.0025C64.3902 77 64.7233 76.9921 65.0043 76.9737C65.2853 76.9554 65.5221 76.9239 65.7199 76.8766C65.9177 76.8294 66.0764 76.7611 66.1987 76.6666C66.321 76.5747 66.4147 76.454 66.4823 76.3017C66.55 76.1495 66.5942 75.9657 66.6176 75.7478C66.6411 75.5299 66.6541 75.2727 66.6541 74.9681V74.8526C66.6541 74.5481 66.6411 74.2909 66.6176 74.0704C66.5942 73.8551 66.55 73.6687 66.4823 73.5191ZM65.4415 74.9393C65.4415 75.1965 65.4311 75.3987 65.4102 75.5483C65.3894 75.6979 65.3296 75.8108 65.2307 75.8843C65.1344 75.9578 64.9835 76.0051 64.7857 76.0234C64.588 76.0445 64.3121 76.0523 63.9634 76.0523H63.862C63.5081 76.0523 63.2348 76.0445 63.0371 76.0234C62.8393 76.0024 62.691 75.9578 62.5947 75.8843C62.4958 75.8082 62.4386 75.6979 62.4152 75.5483C62.3944 75.3987 62.3839 75.1965 62.3839 74.9393V74.8763C62.3839 74.6164 62.3944 74.409 62.4152 74.2594C62.436 74.1071 62.4958 73.9942 62.5947 73.9181C62.691 73.8446 62.8393 73.7973 63.0371 73.779C63.2348 73.7606 63.5081 73.7501 63.862 73.7501H63.9634C64.3121 73.7501 64.5854 73.7606 64.7857 73.779C64.9835 73.8 65.1344 73.8446 65.2307 73.9181C65.3296 73.9942 65.3868 74.1045 65.4102 74.2594C65.4311 74.4116 65.4415 74.6164 65.4415 74.8763V74.9393Z" fill="url(#paint20_linear_47_2)"/>
<path id="Vector_22" d="M77.4452 75.4172H79.0247V75.5248C79.0247 75.6351 79.0143 75.7243 78.9909 75.7926C78.9648 75.8608 78.9102 75.9133 78.8243 75.9553C78.7385 75.9947 78.6109 76.0236 78.447 76.0367C78.2805 76.0524 78.0593 76.0577 77.7783 76.0577H77.6794C77.3333 76.0577 77.0627 76.0472 76.8649 76.0288C76.6697 76.0078 76.524 75.9606 76.4251 75.8844C76.3289 75.8083 76.269 75.6954 76.2456 75.5484C76.2222 75.4014 76.2118 75.1993 76.2118 74.9446V74.8738C76.2118 74.6139 76.2222 74.4065 76.2456 74.2569C76.2716 74.1046 76.3315 73.9891 76.4251 73.913C76.5214 73.8368 76.6697 73.7896 76.8649 73.7686C77.0627 73.7502 77.3333 73.7397 77.6768 73.7397H77.7783C78.0281 73.7397 78.231 73.7476 78.3846 73.766C78.5407 73.7817 78.663 73.808 78.7489 73.8447C78.8347 73.8788 78.8946 73.9313 78.9206 73.9943C78.9492 74.0574 78.9648 74.1361 78.9648 74.2254V74.2752H80.1384V74.1177C80.1384 73.8473 80.1072 73.6268 80.0447 73.4536C79.9823 73.2829 79.8652 73.1517 79.696 73.0572C79.5269 72.9653 79.2927 72.8997 78.9909 72.8656C78.6916 72.8314 78.3039 72.8157 77.8251 72.8157H77.6403C77.263 72.8157 76.9352 72.8236 76.6567 72.8419C76.3809 72.8577 76.1441 72.8918 75.9516 72.9469C75.7564 73.0021 75.6003 73.0756 75.4806 73.1701C75.3609 73.2646 75.2646 73.3879 75.1969 73.5376C75.1293 73.6872 75.0824 73.8683 75.0564 74.0889C75.033 74.3067 75.0226 74.5614 75.0226 74.8554V74.9709C75.0226 75.4093 75.0486 75.7637 75.1085 76.0341C75.1657 76.2992 75.288 76.5066 75.4728 76.651C75.6575 76.798 75.9229 76.8925 76.2664 76.9371C76.6125 76.9817 77.0705 77.0054 77.6456 77.0054H77.8303C78.3195 77.0054 78.7176 76.9844 79.0221 76.9424C79.3291 76.903 79.5685 76.8269 79.7403 76.714C79.9146 76.6037 80.0317 76.4541 80.0916 76.2651C80.154 76.0787 80.1852 75.8319 80.1852 75.5353V74.6244H77.4478V75.4198L77.4452 75.4172Z" fill="url(#paint21_linear_47_2)"/>
<path id="Vector_23" d="M93.0347 75.9236H93.0139L90.6719 72.8706H88.84V76.95H90.0162V73.8997H90.0448L92.418 76.95H94.2265V72.8706H93.0347V75.9236Z" fill="url(#paint22_linear_47_2)"/>
<path id="Vector_24" d="M54.1846 75.9236H54.1637L51.8218 72.8706H49.9925V76.95H51.1687V73.8997H51.1973L53.5704 76.95H55.3789V72.8706H54.1846V75.9236Z" fill="url(#paint23_linear_47_2)"/>
<path id="Vector_25" d="M31.8711 72.8706H30.6585V76.9474H31.8711V72.8706Z" fill="url(#paint24_linear_47_2)"/>
<path id="Vector_26" d="M28.2438 74.8289V74.8158C28.4207 74.7607 28.5586 74.6636 28.6601 74.5271C28.759 74.3879 28.811 74.1753 28.811 73.8892C28.811 73.6949 28.785 73.5348 28.7304 73.4061C28.6783 73.2749 28.5898 73.1699 28.4649 73.0911C28.34 73.0097 28.1735 72.9546 27.9653 72.9205C27.7572 72.8864 27.4969 72.8706 27.1847 72.8706H23.8878V76.9474H27.4865C27.7363 76.9474 27.9523 76.929 28.1345 76.8923C28.3166 76.8582 28.4675 76.7925 28.5872 76.7059C28.7069 76.6167 28.7954 76.4959 28.8527 76.3436C28.9099 76.1914 28.9385 76.0024 28.9385 75.7687C28.9385 75.48 28.8787 75.2595 28.759 75.1098C28.6393 74.9602 28.4675 74.8657 28.2412 74.8263L28.2438 74.8289ZM25.0821 73.708H27.2523C27.3772 73.708 27.4735 73.7343 27.5438 73.7894C27.614 73.8419 27.6479 73.9469 27.6479 74.1018C27.6479 74.2462 27.614 74.3433 27.5438 74.3958C27.4761 74.4483 27.3772 74.4772 27.2523 74.4772H25.0821V73.7106V73.708ZM27.6557 75.9683C27.588 76.0365 27.4631 76.0733 27.281 76.0733H25.0821V75.2542H27.281C27.4631 75.2542 27.588 75.2857 27.6557 75.3461C27.7259 75.4091 27.7598 75.5115 27.7598 75.6559C27.7598 75.8002 27.7259 75.8974 27.6557 75.9683Z" fill="url(#paint25_linear_47_2)"/>
<path id="Vector_27" d="M33.4532 73.7895H35.1993V76.9502H36.3911V73.7895H38.1423V72.8655H33.4532V73.7895Z" fill="url(#paint26_linear_47_2)"/>
<path id="Vector_28" d="M48.0383 73.5191C47.9706 73.3668 47.877 73.2461 47.7521 73.1542C47.6298 73.0623 47.471 72.9914 47.2759 72.9442C47.0781 72.8969 46.8413 72.8628 46.5603 72.8471C46.2792 72.8313 45.9462 72.8208 45.5585 72.8208H45.3711C44.9834 72.8208 44.6503 72.8287 44.3693 72.8471C44.0882 72.8628 43.8514 72.8969 43.6563 72.9442C43.4585 72.9941 43.2998 73.0623 43.1775 73.1542C43.0578 73.2461 42.9615 73.3668 42.8938 73.5191C42.8262 73.6713 42.782 73.8551 42.7585 74.0704C42.7351 74.2882 42.7221 74.5481 42.7221 74.8526V74.9681C42.7221 75.2727 42.7351 75.5299 42.7585 75.7478C42.782 75.9657 42.8262 76.1495 42.8938 76.2991C42.9615 76.4487 43.0552 76.5695 43.1775 76.6587C43.2998 76.7506 43.4585 76.8215 43.6563 76.8714C43.8514 76.9212 44.0908 76.9554 44.3693 76.9737C44.6503 76.9895 44.9834 77 45.3711 77H45.5585C45.9462 77 46.2792 76.9921 46.5603 76.9737C46.8413 76.9554 47.0781 76.9239 47.2759 76.8766C47.4736 76.8294 47.6324 76.7611 47.7521 76.6666C47.8744 76.5747 47.968 76.454 48.0383 76.3017C48.1034 76.1495 48.1502 75.9657 48.1736 75.7478C48.197 75.5299 48.21 75.2727 48.21 74.9681V74.8526C48.21 74.5481 48.197 74.2909 48.1736 74.0704C48.1502 73.8551 48.1034 73.6687 48.0383 73.5191ZM46.9974 74.9393C46.9974 75.1965 46.987 75.3987 46.9636 75.5483C46.9428 75.6979 46.8829 75.8108 46.7841 75.8843C46.6852 75.9578 46.5369 76.0051 46.3391 76.0234C46.1413 76.0445 45.8655 76.0523 45.5168 76.0523H45.4153C45.0614 76.0523 44.7856 76.0445 44.5879 76.0234C44.3927 76.0024 44.247 75.9578 44.1481 75.8843C44.0518 75.8082 43.9894 75.6979 43.9685 75.5483C43.9477 75.3987 43.9373 75.1965 43.9373 74.9393V74.8763C43.9373 74.6164 43.9477 74.409 43.9685 74.2594C43.9894 74.1071 44.0492 73.9942 44.1481 73.9181C44.247 73.8446 44.3927 73.7973 44.5879 73.779C44.7856 73.7606 45.0614 73.7501 45.4153 73.7501H45.5168C45.8655 73.7501 46.1387 73.7606 46.3391 73.779C46.5369 73.8 46.6852 73.8446 46.7841 73.9181C46.8829 73.9942 46.9402 74.1045 46.9636 74.2594C46.9844 74.4116 46.9974 74.6164 46.9974 74.8763V74.9393Z" fill="url(#paint27_linear_47_2)"/>
<path id="Vector_29" d="M40.937 72.8706H39.7244V76.9474H40.937V72.8706Z" fill="url(#paint28_linear_47_2)"/>
<path id="Vector_30" d="M106.797 72.8706H105.585V76.9474H106.797V72.8706Z" fill="url(#paint29_linear_47_2)"/>
</g>
<defs>
<linearGradient id="paint0_linear_47_2" x1="92.254" y1="1.16818" x2="-2.38566" y2="76.3458" gradientUnits="userSpaceOnUse">
<stop stop-color="#EAC17D"/>
<stop offset="0.19" stop-color="#EDCF88"/>
<stop offset="0.41" stop-color="#F3E7D9"/>
<stop offset="0.73" stop-color="#BF822B"/>
<stop offset="0.95" stop-color="#EABE7F"/>
</linearGradient>
<linearGradient id="paint1_linear_47_2" x1="123.891" y1="40.9964" x2="29.2513" y2="116.174" gradientUnits="userSpaceOnUse">
<stop stop-color="#EAC17D"/>
<stop offset="0.19" stop-color="#EDCF88"/>
<stop offset="0.41" stop-color="#F3E7D9"/>
<stop offset="0.73" stop-color="#BF822B"/>
<stop offset="0.95" stop-color="#EABE7F"/>
</linearGradient>
<linearGradient id="paint2_linear_47_2" x1="119.093" y1="34.9534" x2="24.4529" y2="110.134" gradientUnits="userSpaceOnUse">
<stop stop-color="#EAC17D"/>
<stop offset="0.19" stop-color="#EDCF88"/>
<stop offset="0.41" stop-color="#F3E7D9"/>
<stop offset="0.73" stop-color="#BF822B"/>
<stop offset="0.95" stop-color="#EABE7F"/>
</linearGradient>
<linearGradient id="paint3_linear_47_2" x1="131.063" y1="50.0243" x2="36.4228" y2="125.202" gradientUnits="userSpaceOnUse">
<stop stop-color="#EAC17D"/>
<stop offset="0.19" stop-color="#EDCF88"/>
<stop offset="0.41" stop-color="#F3E7D9"/>
<stop offset="0.73" stop-color="#BF822B"/>
<stop offset="0.95" stop-color="#EABE7F"/>
</linearGradient>
<linearGradient id="paint4_linear_47_2" x1="88.6318" y1="-3.39169" x2="-6.00786" y2="71.7885" gradientUnits="userSpaceOnUse">
<stop stop-color="#EAC17D"/>
<stop offset="0.19" stop-color="#EDCF88"/>
<stop offset="0.41" stop-color="#F3E7D9"/>
<stop offset="0.73" stop-color="#BF822B"/>
<stop offset="0.95" stop-color="#EABE7F"/>
</linearGradient>
<linearGradient id="paint5_linear_47_2" x1="98.2" y1="8.65248" x2="3.56029" y2="83.8301" gradientUnits="userSpaceOnUse">
<stop stop-color="#EAC17D"/>
<stop offset="0.19" stop-color="#EDCF88"/>
<stop offset="0.41" stop-color="#F3E7D9"/>
<stop offset="0.73" stop-color="#BF822B"/>
<stop offset="0.95" stop-color="#EABE7F"/>
</linearGradient>
<linearGradient id="paint6_linear_47_2" x1="92.7302" y1="1.76662" x2="-1.90944" y2="76.9468" gradientUnits="userSpaceOnUse">
<stop stop-color="#EAC17D"/>
<stop offset="0.19" stop-color="#EDCF88"/>
<stop offset="0.41" stop-color="#F3E7D9"/>
<stop offset="0.73" stop-color="#BF822B"/>
<stop offset="0.95" stop-color="#EABE7F"/>
</linearGradient>
<linearGradient id="paint7_linear_47_2" x1="114.586" y1="29.2807" x2="19.946" y2="104.458" gradientUnits="userSpaceOnUse">
<stop stop-color="#EAC17D"/>
<stop offset="0.19" stop-color="#EDCF88"/>
<stop offset="0.41" stop-color="#F3E7D9"/>
<stop offset="0.73" stop-color="#BF822B"/>
<stop offset="0.95" stop-color="#EABE7F"/>
</linearGradient>
<linearGradient id="paint8_linear_47_2" x1="109.681" y1="23.1062" x2="15.041" y2="98.2838" gradientUnits="userSpaceOnUse">
<stop stop-color="#EAC17D"/>
<stop offset="0.19" stop-color="#EDCF88"/>
<stop offset="0.41" stop-color="#F3E7D9"/>
<stop offset="0.73" stop-color="#BF822B"/>
<stop offset="0.95" stop-color="#EABE7F"/>
</linearGradient>
<linearGradient id="paint9_linear_47_2" x1="102.134" y1="13.6059" x2="7.4947" y2="88.7835" gradientUnits="userSpaceOnUse">
<stop stop-color="#EAC17D"/>
<stop offset="0.19" stop-color="#EDCF88"/>
<stop offset="0.41" stop-color="#F3E7D9"/>
<stop offset="0.73" stop-color="#BF822B"/>
<stop offset="0.95" stop-color="#EABE7F"/>
</linearGradient>
<linearGradient id="paint10_linear_47_2" x1="100.219" y1="11.1961" x2="5.57949" y2="86.3736" gradientUnits="userSpaceOnUse">
<stop stop-color="#EAC17D"/>
<stop offset="0.19" stop-color="#EDCF88"/>
<stop offset="0.41" stop-color="#F3E7D9"/>
<stop offset="0.73" stop-color="#BF822B"/>
<stop offset="0.95" stop-color="#EABE7F"/>
</linearGradient>
<linearGradient id="paint11_linear_47_2" x1="138.174" y1="58.9761" x2="43.5345" y2="134.156" gradientUnits="userSpaceOnUse">
<stop stop-color="#EAC17D"/>
<stop offset="0.19" stop-color="#EDCF88"/>
<stop offset="0.41" stop-color="#F3E7D9"/>
<stop offset="0.73" stop-color="#BF822B"/>
<stop offset="0.95" stop-color="#EABE7F"/>
</linearGradient>
<linearGradient id="paint12_linear_47_2" x1="135.4" y1="55.4818" x2="40.758" y2="130.662" gradientUnits="userSpaceOnUse">
<stop stop-color="#EAC17D"/>
<stop offset="0.19" stop-color="#EDCF88"/>
<stop offset="0.41" stop-color="#F3E7D9"/>
<stop offset="0.73" stop-color="#BF822B"/>
<stop offset="0.95" stop-color="#EABE7F"/>
</linearGradient>
<linearGradient id="paint13_linear_47_2" x1="95.5614" y1="5.33149" x2="0.919051" y2="80.5091" gradientUnits="userSpaceOnUse">
<stop stop-color="#EAC17D"/>
<stop offset="0.19" stop-color="#EDCF88"/>
<stop offset="0.41" stop-color="#F3E7D9"/>
<stop offset="0.73" stop-color="#BF822B"/>
<stop offset="0.95" stop-color="#EABE7F"/>
</linearGradient>
<linearGradient id="paint14_linear_47_2" x1="98.252" y1="8.72053" x2="3.61226" y2="83.8981" gradientUnits="userSpaceOnUse">
<stop stop-color="#EAC17D"/>
<stop offset="0.19" stop-color="#EDCF88"/>
<stop offset="0.41" stop-color="#F3E7D9"/>
<stop offset="0.73" stop-color="#BF822B"/>
<stop offset="0.95" stop-color="#EABE7F"/>
</linearGradient>
<linearGradient id="paint15_linear_47_2" x1="93.0061" y1="2.11573" x2="-1.63368" y2="77.2933" gradientUnits="userSpaceOnUse">
<stop stop-color="#EAC17D"/>
<stop offset="0.19" stop-color="#EDCF88"/>
<stop offset="0.41" stop-color="#F3E7D9"/>
<stop offset="0.73" stop-color="#BF822B"/>
<stop offset="0.95" stop-color="#EABE7F"/>
</linearGradient>
<linearGradient id="paint16_linear_47_2" x1="125.286" y1="42.7526" x2="30.6461" y2="117.93" gradientUnits="userSpaceOnUse">
<stop stop-color="#EAC17D"/>
<stop offset="0.19" stop-color="#EDCF88"/>
<stop offset="0.41" stop-color="#F3E7D9"/>
<stop offset="0.73" stop-color="#BF822B"/>
<stop offset="0.95" stop-color="#EABE7F"/>
</linearGradient>
<linearGradient id="paint17_linear_47_2" x1="119.558" y1="35.5388" x2="24.9161" y2="110.719" gradientUnits="userSpaceOnUse">
<stop stop-color="#EAC17D"/>
<stop offset="0.19" stop-color="#EDCF88"/>
<stop offset="0.41" stop-color="#F3E7D9"/>
<stop offset="0.73" stop-color="#BF822B"/>
<stop offset="0.95" stop-color="#EABE7F"/>
</linearGradient>
<linearGradient id="paint18_linear_47_2" x1="129.663" y1="48.2627" x2="35.0229" y2="123.44" gradientUnits="userSpaceOnUse">
<stop stop-color="#EAC17D"/>
<stop offset="0.19" stop-color="#EDCF88"/>
<stop offset="0.41" stop-color="#F3E7D9"/>
<stop offset="0.73" stop-color="#BF822B"/>
<stop offset="0.95" stop-color="#EABE7F"/>
</linearGradient>
<linearGradient id="paint19_linear_47_2" x1="131.536" y1="50.6201" x2="36.8964" y2="125.798" gradientUnits="userSpaceOnUse">
<stop stop-color="#EAC17D"/>
<stop offset="0.19" stop-color="#EDCF88"/>
<stop offset="0.41" stop-color="#F3E7D9"/>
<stop offset="0.73" stop-color="#BF822B"/>
<stop offset="0.95" stop-color="#EABE7F"/>
</linearGradient>
<linearGradient id="paint20_linear_47_2" x1="116.842" y1="32.1209" x2="22.202" y2="107.298" gradientUnits="userSpaceOnUse">
<stop stop-color="#EAC17D"/>
<stop offset="0.19" stop-color="#EDCF88"/>
<stop offset="0.41" stop-color="#F3E7D9"/>
<stop offset="0.73" stop-color="#BF822B"/>
<stop offset="0.95" stop-color="#EABE7F"/>
</linearGradient>
<linearGradient id="paint21_linear_47_2" x1="122.213" y1="38.8808" x2="27.5703" y2="114.061" gradientUnits="userSpaceOnUse">
<stop stop-color="#EAC17D"/>
<stop offset="0.19" stop-color="#EDCF88"/>
<stop offset="0.41" stop-color="#F3E7D9"/>
<stop offset="0.73" stop-color="#BF822B"/>
<stop offset="0.95" stop-color="#EABE7F"/>
</linearGradient>
<linearGradient id="paint22_linear_47_2" x1="127.643" y1="45.7164" x2="33.0009" y2="120.896" gradientUnits="userSpaceOnUse">
<stop stop-color="#EAC17D"/>
<stop offset="0.19" stop-color="#EDCF88"/>
<stop offset="0.41" stop-color="#F3E7D9"/>
<stop offset="0.73" stop-color="#BF822B"/>
<stop offset="0.95" stop-color="#EABE7F"/>
</linearGradient>
<linearGradient id="paint23_linear_47_2" x1="112.452" y1="26.5923" x2="17.8096" y2="101.773" gradientUnits="userSpaceOnUse">
<stop stop-color="#EAC17D"/>
<stop offset="0.19" stop-color="#EDCF88"/>
<stop offset="0.41" stop-color="#F3E7D9"/>
<stop offset="0.73" stop-color="#BF822B"/>
<stop offset="0.95" stop-color="#EABE7F"/>
</linearGradient>
<linearGradient id="paint24_linear_47_2" x1="104.076" y1="16.0473" x2="9.43332" y2="91.2275" gradientUnits="userSpaceOnUse">
<stop stop-color="#EAC17D"/>
<stop offset="0.19" stop-color="#EDCF88"/>
<stop offset="0.41" stop-color="#F3E7D9"/>
<stop offset="0.73" stop-color="#BF822B"/>
<stop offset="0.95" stop-color="#EABE7F"/>
</linearGradient>
<linearGradient id="paint25_linear_47_2" x1="102.051" y1="13.5009" x2="7.41147" y2="88.6785" gradientUnits="userSpaceOnUse">
<stop stop-color="#EAC17D"/>
<stop offset="0.19" stop-color="#EDCF88"/>
<stop offset="0.41" stop-color="#F3E7D9"/>
<stop offset="0.73" stop-color="#BF822B"/>
<stop offset="0.95" stop-color="#EABE7F"/>
</linearGradient>
<linearGradient id="paint26_linear_47_2" x1="105.502" y1="17.8456" x2="10.8619" y2="93.0259" gradientUnits="userSpaceOnUse">
<stop stop-color="#EAC17D"/>
<stop offset="0.19" stop-color="#EDCF88"/>
<stop offset="0.41" stop-color="#F3E7D9"/>
<stop offset="0.73" stop-color="#BF822B"/>
<stop offset="0.95" stop-color="#EABE7F"/>
</linearGradient>
<linearGradient id="paint27_linear_47_2" x1="109.626" y1="23.038" x2="14.9863" y2="98.2182" gradientUnits="userSpaceOnUse">
<stop stop-color="#EAC17D"/>
<stop offset="0.19" stop-color="#EDCF88"/>
<stop offset="0.41" stop-color="#F3E7D9"/>
<stop offset="0.73" stop-color="#BF822B"/>
<stop offset="0.95" stop-color="#EABE7F"/>
</linearGradient>
<linearGradient id="paint28_linear_47_2" x1="107.62" y1="20.5126" x2="12.9801" y2="95.6903" gradientUnits="userSpaceOnUse">
<stop stop-color="#EAC17D"/>
<stop offset="0.19" stop-color="#EDCF88"/>
<stop offset="0.41" stop-color="#F3E7D9"/>
<stop offset="0.73" stop-color="#BF822B"/>
<stop offset="0.95" stop-color="#EABE7F"/>
</linearGradient>
<linearGradient id="paint29_linear_47_2" x1="133.376" y1="52.9355" x2="38.7362" y2="128.113" gradientUnits="userSpaceOnUse">
<stop stop-color="#EAC17D"/>
<stop offset="0.19" stop-color="#EDCF88"/>
<stop offset="0.41" stop-color="#F3E7D9"/>
<stop offset="0.73" stop-color="#BF822B"/>
<stop offset="0.95" stop-color="#EABE7F"/>
</linearGradient>
<clipPath id="clip0_47_2">
<rect width="121" height="77" fill="white"/>
</clipPath>
</defs>
</svg>
